<svg viewBox="-61 0 512 512" xmlns="http://www.w3.org/2000/svg"><path d="m355.199219 204.699219c-5.097657-7.199219-10.800781-13.800781-15.898438-19.800781l-144.300781-184.898438-143.699219 184.300781c-5.699219 6.597657-11.398437 13.199219-16.5 20.398438-22.800781 32.699219-34.800781 71.101562-34.800781 111.300781 0 107.398438 87.597656 196 195 196s195-88.601562 195-196c0-40.199219-12-78.601562-34.800781-111.300781zm0 0" fill="#ff5b5b"/><path d="m390 316c0 107.398438-87.597656 196-195 196v-512l144.300781 184.898438c5.097657 6 10.800781 12.601562 15.898438 19.800781 22.800781 32.699219 34.800781 71.101562 34.800781 111.300781zm0 0" fill="#ff001e"/><path d="m195 181c-74.398438 0-135 60.597656-135 135 0 74.398438 60.601562 135 135 135s135-60.601562 135-135c0-74.402344-60.601562-135-135-135zm0 0" fill="#ececf1"/><path d="m330 316c0 74.398438-60.601562 135-135 135v-270c74.398438 0 135 60.597656 135 135zm0 0" fill="#e2e2e7"/><path d="m216.300781 316 42.300781 42.300781-21.300781 21.300781-42.300781-42.300781-42.300781 42.300781-21.300781-21.300781 42.300781-42.300781-42.300781-42.300781 21.300781-21.300781 42.300781 42.300781 42.300781-42.300781 21.300781 21.300781zm0 0" fill="#ff5b5b"/><path d="m216.300781 316 42.300781 42.300781-21.300781 21.300781-42.300781-42.300781v-42.601562l42.300781-42.300781 21.300781 21.300781zm0 0" fill="#ff001e"/></svg>